<svg viewBox="0 55 1680 320" xmlns="http://www.w3.org/2000/svg" fill="none" aria-label="San Francisco skyline">
  <g stroke="#161616" stroke-width="2" stroke-linejoin="round" stroke-linecap="round">
    <path d="M0,300 L138,300 L138,74 L172,74 L172,300 L400,300 L400,74 L434,74 L434,300 L600,300 L600,240 L650,240 L650,300 L690,300 L690,200 L740,200 L740,300 L800,300 L800,150 L840,150 L840,300 L905,300 L905,270 L964,88 L972,88 L1031,270 L1031,300 L1060,300 L1060,220 L1100,220 L1100,300 L1140,300 L1140,175 L1175,175 L1175,300 L1198,300 L1200,120 C1204,72 1246,72 1250,120 L1252,300 L1300,300 L1300,210 L1340,210 L1340,300 L1385,300 L1385,190 C1385,170 1417,170 1417,190 L1417,300 L1460,300 L1460,230 L1510,230 L1510,300 L1560,300 L1560,262 L1600,262 L1600,300 L1640,300 L1640,238 L1680,238"/>
    <path d="M60,300 L155,74 L286,200 L417,74 L512,300"/>
    <path d="M205,122 L205,300 M286,200 L286,300 M367,122 L367,300"/>
  </g>
</svg>
