<svg viewBox="0 55 1680 320" xmlns="http://www.w3.org/2000/svg" fill="none" aria-label="San Francisco skyline">
  <g stroke="#161616" stroke-width="2.2" stroke-linejoin="round" stroke-linecap="round">
    <!-- GOLDEN GATE BRIDGE -->
    <path d="M0,300 L560,300"/>
    <path d="M150,300 L150,70 M186,300 L186,70 M150,70 L186,70 M150,120 L186,120 M150,160 L186,160"/>
    <path d="M410,300 L410,70 M446,300 L446,70 M410,70 L446,70 M410,120 L446,120 M410,160 L446,160"/>
    <path d="M0,150 C60,110 120,80 168,72 C230,120 300,220 298,232 C300,220 360,120 428,72 C500,86 540,120 560,150"/>
    <path d="M60,132 L60,300 M110,102 L110,300 M240,150 L240,300 M298,232 L298,300 M356,150 L356,300 M486,102 L486,300 M536,132 L536,300"/>
    <!-- DOWNTOWN SKYLINE -->
    <path d="M560,360 L560,300 L600,300 L600,240 L650,240 L650,300 L690,300 L690,200 L740,200 L740,300 L800,300 L800,150 L840,150 L840,300 L900,300"/>
    <!-- Transamerica Pyramid -->
    <path d="M905,300 L905,270 L960,120 L960,80 L968,80 L968,120 L1023,270 L1023,300"/>
    <path d="M960,150 L945,150 M968,150 L983,150"/>
    <path d="M1023,300 L1060,300 L1060,220 L1100,220 L1100,300 L1140,300 L1140,175 L1175,175 L1175,300"/>
    <!-- Salesforce Tower -->
    <path d="M1195,300 L1200,120 C1205,70 1245,70 1250,120 L1255,300"/>
    <path d="M1213,100 L1237,100 M1210,140 L1240,140"/>
    <path d="M1255,300 L1300,300 L1300,210 L1340,210 L1340,300 L1370,300"/>
    <!-- Coit Tower -->
    <path d="M1385,300 L1385,190 C1385,172 1417,172 1417,190 L1417,300"/>
    <path d="M1385,190 L1417,190 M1390,205 L1412,205"/>
    <path d="M1417,300 L1460,300 L1460,230 L1510,230 L1510,300 L1560,300 L1560,260 L1600,260 L1600,300 L1640,300 L1640,235 L1680,235"/>
    <!-- ground -->
    <path d="M0,360 L1680,360" stroke-width="2.4"/>
  </g>
</svg>
