<svg viewBox="0 0 520 520" xmlns="http://www.w3.org/2000/svg" aria-hidden="true">
<rect x="23.5" y="163.5" width="13" height="13" rx="4.5" fill="#CFC7E2" opacity="0.90"/>
<rect x="23.5" y="183.5" width="13" height="13" rx="4.5" fill="#CFC7E2" opacity="0.90"/>
<rect x="23.5" y="203.5" width="13" height="13" rx="4.5" fill="#CFC7E2" opacity="0.90"/>
<rect x="23.5" y="223.5" width="13" height="13" rx="4.5" fill="#CFC7E2" opacity="0.90"/>
<rect x="23.5" y="243.5" width="13" height="13" rx="4.5" fill="#CFC7E2" opacity="0.90"/>
<rect x="23.5" y="263.5" width="13" height="13" rx="4.5" fill="#CFC7E2" opacity="0.90"/>
<rect x="23.5" y="283.5" width="13" height="13" rx="4.5" fill="#CFC7E2" opacity="0.90"/>
<rect x="23.5" y="303.5" width="13" height="13" rx="4.5" fill="#CFC7E2" opacity="0.90"/>
<rect x="23.5" y="323.5" width="13" height="13" rx="4.5" fill="#CFC7E2" opacity="0.90"/>
<rect x="23.5" y="343.5" width="13" height="13" rx="4.5" fill="#CFC7E2" opacity="0.90"/>
<rect x="43.5" y="123.5" width="13" height="13" rx="4.5" fill="#CFC7E2" opacity="0.90"/>
<rect x="43.5" y="143.5" width="13" height="13" rx="4.5" fill="#CFC7E2" opacity="0.90"/>
<rect x="43.5" y="163.5" width="13" height="13" rx="4.5" fill="#CFC7E2" opacity="0.90"/>
<rect x="43.5" y="183.5" width="13" height="13" rx="4.5" fill="#E9E7EF" opacity="0.55"/>
<rect x="43.5" y="203.5" width="13" height="13" rx="4.5" fill="#E9E7EF" opacity="0.55"/>
<rect x="43.5" y="223.5" width="13" height="13" rx="4.5" fill="#E9E7EF" opacity="0.55"/>
<rect x="43.5" y="243.5" width="13" height="13" rx="4.5" fill="#E9E7EF" opacity="0.55"/>
<rect x="43.5" y="263.5" width="13" height="13" rx="4.5" fill="#E9E7EF" opacity="0.55"/>
<rect x="43.5" y="283.5" width="13" height="13" rx="4.5" fill="#E9E7EF" opacity="0.55"/>
<rect x="43.5" y="303.5" width="13" height="13" rx="4.5" fill="#E9E7EF" opacity="0.55"/>
<rect x="43.5" y="323.5" width="13" height="13" rx="4.5" fill="#E9E7EF" opacity="0.55"/>
<rect x="43.5" y="343.5" width="13" height="13" rx="4.5" fill="#CFC7E2" opacity="0.90"/>
<rect x="43.5" y="363.5" width="13" height="13" rx="4.5" fill="#CFC7E2" opacity="0.90"/>
<rect x="43.5" y="383.5" width="13" height="13" rx="4.5" fill="#CFC7E2" opacity="0.90"/>
<rect x="63.5" y="103.5" width="13" height="13" rx="4.5" fill="#CFC7E2" opacity="0.90"/>
<rect x="63.5" y="123.5" width="13" height="13" rx="4.5" fill="#CFC7E2" opacity="0.90"/>
<rect x="63.5" y="143.5" width="13" height="13" rx="4.5" fill="#E9E7EF" opacity="0.55"/>
<rect x="63.5" y="163.5" width="13" height="13" rx="4.5" fill="#E9E7EF" opacity="0.55"/>
<rect x="63.5" y="183.5" width="13" height="13" rx="4.5" fill="#E9E7EF" opacity="0.55"/>
<rect x="63.5" y="203.5" width="13" height="13" rx="4.5" fill="#E9E7EF" opacity="0.55"/>
<rect x="63.5" y="223.5" width="13" height="13" rx="4.5" fill="#E9E7EF" opacity="0.55"/>
<rect x="63.5" y="243.5" width="13" height="13" rx="4.5" fill="#E9E7EF" opacity="0.55"/>
<rect x="63.5" y="263.5" width="13" height="13" rx="4.5" fill="#E9E7EF" opacity="0.55"/>
<rect x="63.5" y="283.5" width="13" height="13" rx="4.5" fill="#E9E7EF" opacity="0.55"/>
<rect x="63.5" y="303.5" width="13" height="13" rx="4.5" fill="#E9E7EF" opacity="0.55"/>
<rect x="63.5" y="323.5" width="13" height="13" rx="4.5" fill="#E9E7EF" opacity="0.55"/>
<rect x="63.5" y="343.5" width="13" height="13" rx="4.5" fill="#E9E7EF" opacity="0.55"/>
<rect x="63.5" y="363.5" width="13" height="13" rx="4.5" fill="#E9E7EF" opacity="0.55"/>
<rect x="63.5" y="383.5" width="13" height="13" rx="4.5" fill="#CFC7E2" opacity="0.90"/>
<rect x="63.5" y="403.5" width="13" height="13" rx="4.5" fill="#CFC7E2" opacity="0.90"/>
<rect x="83.5" y="83.5" width="13" height="13" rx="4.5" fill="#CFC7E2" opacity="0.90"/>
<rect x="83.5" y="103.5" width="13" height="13" rx="4.5" fill="#CFC7E2" opacity="0.90"/>
<rect x="83.5" y="123.5" width="13" height="13" rx="4.5" fill="#E9E7EF" opacity="0.55"/>
<rect x="83.5" y="143.5" width="13" height="13" rx="4.5" fill="#E9E7EF" opacity="0.55"/>
<rect x="83.5" y="163.5" width="13" height="13" rx="4.5" fill="#E9E7EF" opacity="0.55"/>
<rect x="83.5" y="183.5" width="13" height="13" rx="4.5" fill="#E9E7EF" opacity="0.55"/>
<rect x="83.5" y="203.5" width="13" height="13" rx="4.5" fill="#E9E7EF" opacity="0.55"/>
<rect x="83.5" y="223.5" width="13" height="13" rx="4.5" fill="#E9E7EF" opacity="0.55"/>
<rect x="83.5" y="243.5" width="13" height="13" rx="4.5" fill="#E9E7EF" opacity="0.55"/>
<rect x="83.5" y="263.5" width="13" height="13" rx="4.5" fill="#E9E7EF" opacity="0.55"/>
<rect x="83.5" y="283.5" width="13" height="13" rx="4.5" fill="#E9E7EF" opacity="0.55"/>
<rect x="83.5" y="303.5" width="13" height="13" rx="4.5" fill="#E9E7EF" opacity="0.55"/>
<rect x="83.5" y="323.5" width="13" height="13" rx="4.5" fill="#E9E7EF" opacity="0.55"/>
<rect x="83.5" y="343.5" width="13" height="13" rx="4.5" fill="#E9E7EF" opacity="0.55"/>
<rect x="83.5" y="363.5" width="13" height="13" rx="4.5" fill="#E9E7EF" opacity="0.55"/>
<rect x="83.5" y="383.5" width="13" height="13" rx="4.5" fill="#E9E7EF" opacity="0.55"/>
<rect x="83.5" y="403.5" width="13" height="13" rx="4.5" fill="#CFC7E2" opacity="0.90"/>
<rect x="83.5" y="423.5" width="13" height="13" rx="4.5" fill="#CFC7E2" opacity="0.90"/>
<rect x="103.5" y="63.5" width="13" height="13" rx="4.5" fill="#CFC7E2" opacity="0.90"/>
<rect x="103.5" y="83.5" width="13" height="13" rx="4.5" fill="#CFC7E2" opacity="0.90"/>
<rect x="103.5" y="103.5" width="13" height="13" rx="4.5" fill="#E9E7EF" opacity="0.55"/>
<rect x="103.5" y="123.5" width="13" height="13" rx="4.5" fill="#E9E7EF" opacity="0.55"/>
<rect x="103.5" y="143.5" width="13" height="13" rx="4.5" fill="#E9E7EF" opacity="0.55"/>
<rect x="103.5" y="163.5" width="13" height="13" rx="4.5" fill="#E9E7EF" opacity="0.55"/>
<rect x="103.5" y="183.5" width="13" height="13" rx="4.5" fill="#E9E7EF" opacity="0.55"/>
<rect x="103.5" y="203.5" width="13" height="13" rx="4.5" fill="#E9E7EF" opacity="0.55"/>
<rect x="103.5" y="223.5" width="13" height="13" rx="4.5" fill="#E9E7EF" opacity="0.55"/>
<rect x="103.5" y="243.5" width="13" height="13" rx="4.5" fill="#E9E7EF" opacity="0.55"/>
<rect x="103.5" y="263.5" width="13" height="13" rx="4.5" fill="#E9E7EF" opacity="0.55"/>
<rect x="103.5" y="283.5" width="13" height="13" rx="4.5" fill="#E9E7EF" opacity="0.55"/>
<rect x="103.5" y="303.5" width="13" height="13" rx="4.5" fill="#E9E7EF" opacity="0.55"/>
<rect x="103.5" y="323.5" width="13" height="13" rx="4.5" fill="#E9E7EF" opacity="0.55"/>
<rect x="103.5" y="343.5" width="13" height="13" rx="4.5" fill="#E9E7EF" opacity="0.55"/>
<rect x="103.5" y="363.5" width="13" height="13" rx="4.5" fill="#E9E7EF" opacity="0.55"/>
<rect x="103.5" y="383.5" width="13" height="13" rx="4.5" fill="#E9E7EF" opacity="0.55"/>
<rect x="103.5" y="403.5" width="13" height="13" rx="4.5" fill="#E9E7EF" opacity="0.55"/>
<rect x="103.5" y="423.5" width="13" height="13" rx="4.5" fill="#CFC7E2" opacity="0.90"/>
<rect x="103.5" y="443.5" width="13" height="13" rx="4.5" fill="#CFC7E2" opacity="0.90"/>
<rect x="123.5" y="43.5" width="13" height="13" rx="4.5" fill="#CFC7E2" opacity="0.90"/>
<rect x="123.5" y="63.5" width="13" height="13" rx="4.5" fill="#CFC7E2" opacity="0.90"/>
<rect x="123.5" y="83.5" width="13" height="13" rx="4.5" fill="#E9E7EF" opacity="0.55"/>
<rect x="123.5" y="103.5" width="13" height="13" rx="4.5" fill="#E9E7EF" opacity="0.55"/>
<rect x="123.5" y="123.5" width="13" height="13" rx="4.5" fill="#E9E7EF" opacity="0.55"/>
<rect x="123.5" y="143.5" width="13" height="13" rx="4.5" fill="#E9E7EF" opacity="0.55"/>
<rect x="123.5" y="163.5" width="13" height="13" rx="4.5" fill="#E9E7EF" opacity="0.55"/>
<rect x="123.5" y="183.5" width="13" height="13" rx="4.5" fill="#E9E7EF" opacity="0.55"/>
<rect x="123.5" y="203.5" width="13" height="13" rx="4.5" fill="#E9E7EF" opacity="0.55"/>
<rect x="123.5" y="223.5" width="13" height="13" rx="4.5" fill="#E9E7EF" opacity="0.55"/>
<rect x="123.5" y="243.5" width="13" height="13" rx="4.5" fill="#E9E7EF" opacity="0.55"/>
<rect x="123.5" y="263.5" width="13" height="13" rx="4.5" fill="#E9E7EF" opacity="0.55"/>
<rect x="123.5" y="283.5" width="13" height="13" rx="4.5" fill="#E9E7EF" opacity="0.55"/>
<rect x="123.5" y="303.5" width="13" height="13" rx="4.5" fill="#E9E7EF" opacity="0.55"/>
<rect x="123.5" y="323.5" width="13" height="13" rx="4.5" fill="#E9E7EF" opacity="0.55"/>
<rect x="123.5" y="343.5" width="13" height="13" rx="4.5" fill="#E9E7EF" opacity="0.55"/>
<rect x="123.5" y="363.5" width="13" height="13" rx="4.5" fill="#E9E7EF" opacity="0.55"/>
<rect x="123.5" y="383.5" width="13" height="13" rx="4.5" fill="#E9E7EF" opacity="0.55"/>
<rect x="123.5" y="403.5" width="13" height="13" rx="4.5" fill="#E9E7EF" opacity="0.55"/>
<rect x="123.5" y="423.5" width="13" height="13" rx="4.5" fill="#E9E7EF" opacity="0.55"/>
<rect x="123.5" y="443.5" width="13" height="13" rx="4.5" fill="#CFC7E2" opacity="0.90"/>
<rect x="123.5" y="463.5" width="13" height="13" rx="4.5" fill="#CFC7E2" opacity="0.90"/>
<rect x="143.5" y="43.5" width="13" height="13" rx="4.5" fill="#CFC7E2" opacity="0.90"/>
<rect x="143.5" y="63.5" width="13" height="13" rx="4.5" fill="#E9E7EF" opacity="0.55"/>
<rect x="143.5" y="83.5" width="13" height="13" rx="4.5" fill="#E9E7EF" opacity="0.55"/>
<rect x="143.5" y="103.5" width="13" height="13" rx="4.5" fill="#E9E7EF" opacity="0.55"/>
<rect x="143.5" y="123.5" width="13" height="13" rx="4.5" fill="#E9E7EF" opacity="0.55"/>
<rect x="143.5" y="143.5" width="13" height="13" rx="4.5" fill="#E9E7EF" opacity="0.55"/>
<rect x="143.5" y="163.5" width="13" height="13" rx="4.5" fill="#E9E7EF" opacity="0.55"/>
<rect x="143.5" y="183.5" width="13" height="13" rx="4.5" fill="#E9E7EF" opacity="0.55"/>
<rect x="143.5" y="203.5" width="13" height="13" rx="4.5" fill="#E9E7EF" opacity="0.55"/>
<rect x="143.5" y="223.5" width="13" height="13" rx="4.5" fill="#E9E7EF" opacity="0.55"/>
<rect x="143.5" y="243.5" width="13" height="13" rx="4.5" fill="#E9E7EF" opacity="0.55"/>
<rect x="143.5" y="263.5" width="13" height="13" rx="4.5" fill="#E9E7EF" opacity="0.55"/>
<rect x="143.5" y="283.5" width="13" height="13" rx="4.5" fill="#E9E7EF" opacity="0.55"/>
<rect x="143.5" y="303.5" width="13" height="13" rx="4.5" fill="#E9E7EF" opacity="0.55"/>
<rect x="143.5" y="323.5" width="13" height="13" rx="4.5" fill="#E9E7EF" opacity="0.55"/>
<rect x="143.5" y="343.5" width="13" height="13" rx="4.5" fill="#E9E7EF" opacity="0.55"/>
<rect x="143.5" y="363.5" width="13" height="13" rx="4.5" fill="#E9E7EF" opacity="0.55"/>
<rect x="143.5" y="383.5" width="13" height="13" rx="4.5" fill="#E9E7EF" opacity="0.55"/>
<rect x="143.5" y="403.5" width="13" height="13" rx="4.5" fill="#E9E7EF" opacity="0.55"/>
<rect x="143.5" y="423.5" width="13" height="13" rx="4.5" fill="#E9E7EF" opacity="0.55"/>
<rect x="143.5" y="443.5" width="13" height="13" rx="4.5" fill="#E9E7EF" opacity="0.55"/>
<rect x="143.5" y="463.5" width="13" height="13" rx="4.5" fill="#CFC7E2" opacity="0.90"/>
<rect x="163.5" y="23.5" width="13" height="13" rx="4.5" fill="#CFC7E2" opacity="0.90"/>
<rect x="163.5" y="43.5" width="13" height="13" rx="4.5" fill="#CFC7E2" opacity="0.90"/>
<rect x="163.5" y="63.5" width="13" height="13" rx="4.5" fill="#E9E7EF" opacity="0.55"/>
<rect x="163.5" y="83.5" width="13" height="13" rx="4.5" fill="#E9E7EF" opacity="0.55"/>
<rect x="163.5" y="103.5" width="13" height="13" rx="4.5" fill="#E9E7EF" opacity="0.55"/>
<rect x="163.5" y="123.5" width="13" height="13" rx="4.5" fill="#E9E7EF" opacity="0.55"/>
<rect x="163.5" y="143.5" width="13" height="13" rx="4.5" fill="#E9E7EF" opacity="0.55"/>
<rect x="163.5" y="163.5" width="13" height="13" rx="4.5" fill="#E9E7EF" opacity="0.55"/>
<rect x="163.5" y="183.5" width="13" height="13" rx="4.5" fill="#E9E7EF" opacity="0.55"/>
<rect x="163.5" y="203.5" width="13" height="13" rx="4.5" fill="#E9E7EF" opacity="0.55"/>
<rect x="163.5" y="223.5" width="13" height="13" rx="4.5" fill="#E9E7EF" opacity="0.55"/>
<rect x="163.5" y="243.5" width="13" height="13" rx="4.5" fill="#E9E7EF" opacity="0.55"/>
<rect x="163.5" y="263.5" width="13" height="13" rx="4.5" fill="#E9E7EF" opacity="0.55"/>
<rect x="163.5" y="283.5" width="13" height="13" rx="4.5" fill="#E9E7EF" opacity="0.55"/>
<rect x="163.5" y="303.5" width="13" height="13" rx="4.5" fill="#E9E7EF" opacity="0.55"/>
<rect x="163.5" y="323.5" width="13" height="13" rx="4.5" fill="#E9E7EF" opacity="0.55"/>
<rect x="163.5" y="343.5" width="13" height="13" rx="4.5" fill="#E9E7EF" opacity="0.55"/>
<rect x="163.5" y="363.5" width="13" height="13" rx="4.5" fill="#E9E7EF" opacity="0.55"/>
<rect x="163.5" y="383.5" width="13" height="13" rx="4.5" fill="#E9E7EF" opacity="0.55"/>
<rect x="163.5" y="403.5" width="13" height="13" rx="4.5" fill="#E9E7EF" opacity="0.55"/>
<rect x="163.5" y="423.5" width="13" height="13" rx="4.5" fill="#E9E7EF" opacity="0.55"/>
<rect x="163.5" y="443.5" width="13" height="13" rx="4.5" fill="#E9E7EF" opacity="0.55"/>
<rect x="163.5" y="463.5" width="13" height="13" rx="4.5" fill="#CFC7E2" opacity="0.90"/>
<rect x="163.5" y="483.5" width="13" height="13" rx="4.5" fill="#CFC7E2" opacity="0.90"/>
<rect x="183.5" y="23.5" width="13" height="13" rx="4.5" fill="#CFC7E2" opacity="0.90"/>
<rect x="183.5" y="43.5" width="13" height="13" rx="4.5" fill="#E9E7EF" opacity="0.55"/>
<rect x="183.5" y="63.5" width="13" height="13" rx="4.5" fill="#E9E7EF" opacity="0.55"/>
<rect x="183.5" y="83.5" width="13" height="13" rx="4.5" fill="#E9E7EF" opacity="0.55"/>
<rect x="183.5" y="103.5" width="13" height="13" rx="4.5" fill="#E9E7EF" opacity="0.55"/>
<rect x="183.5" y="123.5" width="13" height="13" rx="4.5" fill="#E9E7EF" opacity="0.55"/>
<rect x="183.5" y="143.5" width="13" height="13" rx="4.5" fill="#E9E7EF" opacity="0.55"/>
<rect x="183.5" y="163.5" width="13" height="13" rx="4.5" fill="#E9E7EF" opacity="0.55"/>
<rect x="183.5" y="183.5" width="13" height="13" rx="4.5" fill="#E9E7EF" opacity="0.55"/>
<rect x="183.5" y="203.5" width="13" height="13" rx="4.5" fill="#E9E7EF" opacity="0.55"/>
<rect x="183.5" y="223.5" width="13" height="13" rx="4.5" fill="#E9E7EF" opacity="0.55"/>
<rect x="183.5" y="243.5" width="13" height="13" rx="4.5" fill="#E9E7EF" opacity="0.55"/>
<rect x="183.5" y="263.5" width="13" height="13" rx="4.5" fill="#E9E7EF" opacity="0.55"/>
<rect x="183.5" y="283.5" width="13" height="13" rx="4.5" fill="#E9E7EF" opacity="0.55"/>
<rect x="183.5" y="303.5" width="13" height="13" rx="4.5" fill="#E9E7EF" opacity="0.55"/>
<rect x="183.5" y="323.5" width="13" height="13" rx="4.5" fill="#E9E7EF" opacity="0.55"/>
<rect x="183.5" y="343.5" width="13" height="13" rx="4.5" fill="#E9E7EF" opacity="0.55"/>
<rect x="183.5" y="363.5" width="13" height="13" rx="4.5" fill="#E9E7EF" opacity="0.55"/>
<rect x="183.5" y="383.5" width="13" height="13" rx="4.5" fill="#E9E7EF" opacity="0.55"/>
<rect x="183.5" y="403.5" width="13" height="13" rx="4.5" fill="#E9E7EF" opacity="0.55"/>
<rect x="183.5" y="423.5" width="13" height="13" rx="4.5" fill="#E9E7EF" opacity="0.55"/>
<rect x="183.5" y="443.5" width="13" height="13" rx="4.5" fill="#E9E7EF" opacity="0.55"/>
<rect x="183.5" y="463.5" width="13" height="13" rx="4.5" fill="#E9E7EF" opacity="0.55"/>
<rect x="183.5" y="483.5" width="13" height="13" rx="4.5" fill="#CFC7E2" opacity="0.90"/>
<rect x="203.5" y="23.5" width="13" height="13" rx="4.5" fill="#CFC7E2" opacity="0.90"/>
<rect x="203.5" y="43.5" width="13" height="13" rx="4.5" fill="#E9E7EF" opacity="0.55"/>
<rect x="203.5" y="63.5" width="13" height="13" rx="4.5" fill="#E9E7EF" opacity="0.55"/>
<rect x="203.5" y="83.5" width="13" height="13" rx="4.5" fill="#E9E7EF" opacity="0.55"/>
<rect x="203.5" y="103.5" width="13" height="13" rx="4.5" fill="#E9E7EF" opacity="0.55"/>
<rect x="203.5" y="123.5" width="13" height="13" rx="4.5" fill="#E9E7EF" opacity="0.55"/>
<rect x="203.5" y="143.5" width="13" height="13" rx="4.5" fill="#E9E7EF" opacity="0.55"/>
<rect x="203.5" y="163.5" width="13" height="13" rx="4.5" fill="#E9E7EF" opacity="0.55"/>
<rect x="203.5" y="183.5" width="13" height="13" rx="4.5" fill="#E9E7EF" opacity="0.55"/>
<rect x="203.5" y="203.5" width="13" height="13" rx="4.5" fill="#E9E7EF" opacity="0.55"/>
<rect x="203.5" y="223.5" width="13" height="13" rx="4.5" fill="#E9E7EF" opacity="0.55"/>
<rect x="203.5" y="243.5" width="13" height="13" rx="4.5" fill="#E9E7EF" opacity="0.55"/>
<rect x="203.5" y="263.5" width="13" height="13" rx="4.5" fill="#E9E7EF" opacity="0.55"/>
<rect x="203.5" y="283.5" width="13" height="13" rx="4.5" fill="#E9E7EF" opacity="0.55"/>
<rect x="203.5" y="303.5" width="13" height="13" rx="4.5" fill="#E9E7EF" opacity="0.55"/>
<rect x="203.5" y="323.5" width="13" height="13" rx="4.5" fill="#E9E7EF" opacity="0.55"/>
<rect x="203.5" y="343.5" width="13" height="13" rx="4.5" fill="#E9E7EF" opacity="0.55"/>
<rect x="203.5" y="363.5" width="13" height="13" rx="4.5" fill="#E9E7EF" opacity="0.55"/>
<rect x="203.5" y="383.5" width="13" height="13" rx="4.5" fill="#E9E7EF" opacity="0.55"/>
<rect x="203.5" y="403.5" width="13" height="13" rx="4.5" fill="#E9E7EF" opacity="0.55"/>
<rect x="203.5" y="423.5" width="13" height="13" rx="4.5" fill="#E9E7EF" opacity="0.55"/>
<rect x="203.5" y="443.5" width="13" height="13" rx="4.5" fill="#E9E7EF" opacity="0.55"/>
<rect x="203.5" y="463.5" width="13" height="13" rx="4.5" fill="#E9E7EF" opacity="0.55"/>
<rect x="203.5" y="483.5" width="13" height="13" rx="4.5" fill="#CFC7E2" opacity="0.90"/>
<rect x="223.5" y="23.5" width="13" height="13" rx="4.5" fill="#CFC7E2" opacity="0.90"/>
<rect x="223.5" y="43.5" width="13" height="13" rx="4.5" fill="#E9E7EF" opacity="0.55"/>
<rect x="223.5" y="63.5" width="13" height="13" rx="4.5" fill="#E9E7EF" opacity="0.55"/>
<rect x="223.5" y="83.5" width="13" height="13" rx="4.5" fill="#E9E7EF" opacity="0.55"/>
<rect x="223.5" y="103.5" width="13" height="13" rx="4.5" fill="#E9E7EF" opacity="0.55"/>
<rect x="223.5" y="123.5" width="13" height="13" rx="4.5" fill="#E9E7EF" opacity="0.55"/>
<rect x="223.5" y="143.5" width="13" height="13" rx="4.5" fill="#E9E7EF" opacity="0.55"/>
<rect x="223.5" y="163.5" width="13" height="13" rx="4.5" fill="#E9E7EF" opacity="0.55"/>
<rect x="223.5" y="183.5" width="13" height="13" rx="4.5" fill="#E9E7EF" opacity="0.55"/>
<rect x="223.5" y="203.5" width="13" height="13" rx="4.5" fill="#E9E7EF" opacity="0.55"/>
<rect x="223.5" y="223.5" width="13" height="13" rx="4.5" fill="#E9E7EF" opacity="0.55"/>
<rect x="223.5" y="243.5" width="13" height="13" rx="4.5" fill="#E9E7EF" opacity="0.55"/>
<rect x="223.5" y="263.5" width="13" height="13" rx="4.5" fill="#E9E7EF" opacity="0.55"/>
<rect x="223.5" y="283.5" width="13" height="13" rx="4.5" fill="#E9E7EF" opacity="0.55"/>
<rect x="223.5" y="303.5" width="13" height="13" rx="4.5" fill="#E9E7EF" opacity="0.55"/>
<rect x="223.5" y="323.5" width="13" height="13" rx="4.5" fill="#E9E7EF" opacity="0.55"/>
<rect x="223.5" y="343.5" width="13" height="13" rx="4.5" fill="#E9E7EF" opacity="0.55"/>
<rect x="223.5" y="363.5" width="13" height="13" rx="4.5" fill="#E9E7EF" opacity="0.55"/>
<rect x="223.5" y="383.5" width="13" height="13" rx="4.5" fill="#E9E7EF" opacity="0.55"/>
<rect x="223.5" y="403.5" width="13" height="13" rx="4.5" fill="#E9E7EF" opacity="0.55"/>
<rect x="223.5" y="423.5" width="13" height="13" rx="4.5" fill="#E9E7EF" opacity="0.55"/>
<rect x="223.5" y="443.5" width="13" height="13" rx="4.5" fill="#E9E7EF" opacity="0.55"/>
<rect x="223.5" y="463.5" width="13" height="13" rx="4.5" fill="#E9E7EF" opacity="0.55"/>
<rect x="223.5" y="483.5" width="13" height="13" rx="4.5" fill="#CFC7E2" opacity="0.90"/>
<rect x="243.5" y="23.5" width="13" height="13" rx="4.5" fill="#CFC7E2" opacity="0.90"/>
<rect x="243.5" y="43.5" width="13" height="13" rx="4.5" fill="#E9E7EF" opacity="0.55"/>
<rect x="243.5" y="63.5" width="13" height="13" rx="4.5" fill="#E9E7EF" opacity="0.55"/>
<rect x="243.5" y="83.5" width="13" height="13" rx="4.5" fill="#E9E7EF" opacity="0.55"/>
<rect x="243.5" y="103.5" width="13" height="13" rx="4.5" fill="#E9E7EF" opacity="0.55"/>
<rect x="243.5" y="123.5" width="13" height="13" rx="4.5" fill="#E9E7EF" opacity="0.55"/>
<rect x="243.5" y="143.5" width="13" height="13" rx="4.5" fill="#E9E7EF" opacity="0.55"/>
<rect x="243.5" y="163.5" width="13" height="13" rx="4.5" fill="#E9E7EF" opacity="0.55"/>
<rect x="243.5" y="183.5" width="13" height="13" rx="4.5" fill="#E9E7EF" opacity="0.55"/>
<rect x="243.5" y="203.5" width="13" height="13" rx="4.5" fill="#E9E7EF" opacity="0.55"/>
<rect x="243.5" y="223.5" width="13" height="13" rx="4.5" fill="#E9E7EF" opacity="0.55"/>
<rect x="243.5" y="243.5" width="13" height="13" rx="4.5" fill="#E9E7EF" opacity="0.55"/>
<rect x="243.5" y="263.5" width="13" height="13" rx="4.5" fill="#E9E7EF" opacity="0.55"/>
<rect x="243.5" y="283.5" width="13" height="13" rx="4.5" fill="#E9E7EF" opacity="0.55"/>
<rect x="243.5" y="303.5" width="13" height="13" rx="4.5" fill="#E9E7EF" opacity="0.55"/>
<rect x="243.5" y="323.5" width="13" height="13" rx="4.5" fill="#E9E7EF" opacity="0.55"/>
<rect x="243.5" y="343.5" width="13" height="13" rx="4.5" fill="#E9E7EF" opacity="0.55"/>
<rect x="243.5" y="363.5" width="13" height="13" rx="4.5" fill="#E9E7EF" opacity="0.55"/>
<rect x="243.5" y="383.5" width="13" height="13" rx="4.5" fill="#E9E7EF" opacity="0.55"/>
<rect x="243.5" y="403.5" width="13" height="13" rx="4.5" fill="#E9E7EF" opacity="0.55"/>
<rect x="243.5" y="423.5" width="13" height="13" rx="4.5" fill="#E9E7EF" opacity="0.55"/>
<rect x="243.5" y="443.5" width="13" height="13" rx="4.5" fill="#E9E7EF" opacity="0.55"/>
<rect x="243.5" y="463.5" width="13" height="13" rx="4.5" fill="#E9E7EF" opacity="0.55"/>
<rect x="243.5" y="483.5" width="13" height="13" rx="4.5" fill="#CFC7E2" opacity="0.90"/>
<rect x="263.5" y="23.5" width="13" height="13" rx="4.5" fill="#CFC7E2" opacity="0.90"/>
<rect x="263.5" y="43.5" width="13" height="13" rx="4.5" fill="#E9E7EF" opacity="0.55"/>
<rect x="263.5" y="63.5" width="13" height="13" rx="4.5" fill="#E9E7EF" opacity="0.55"/>
<rect x="263.5" y="83.5" width="13" height="13" rx="4.5" fill="#E9E7EF" opacity="0.55"/>
<rect x="263.5" y="103.5" width="13" height="13" rx="4.5" fill="#E9E7EF" opacity="0.55"/>
<rect x="263.5" y="123.5" width="13" height="13" rx="4.5" fill="#E9E7EF" opacity="0.55"/>
<rect x="263.5" y="143.5" width="13" height="13" rx="4.5" fill="#E9E7EF" opacity="0.55"/>
<rect x="263.5" y="163.5" width="13" height="13" rx="4.5" fill="#E9E7EF" opacity="0.55"/>
<rect x="263.5" y="183.5" width="13" height="13" rx="4.5" fill="#E9E7EF" opacity="0.55"/>
<rect x="263.5" y="203.5" width="13" height="13" rx="4.5" fill="#E9E7EF" opacity="0.55"/>
<rect x="263.5" y="223.5" width="13" height="13" rx="4.5" fill="#E9E7EF" opacity="0.55"/>
<rect x="263.5" y="243.5" width="13" height="13" rx="4.5" fill="#E9E7EF" opacity="0.55"/>
<rect x="263.5" y="263.5" width="13" height="13" rx="4.5" fill="#E9E7EF" opacity="0.55"/>
<rect x="263.5" y="283.5" width="13" height="13" rx="4.5" fill="#E9E7EF" opacity="0.55"/>
<rect x="263.5" y="303.5" width="13" height="13" rx="4.5" fill="#E9E7EF" opacity="0.55"/>
<rect x="263.5" y="323.5" width="13" height="13" rx="4.5" fill="#E9E7EF" opacity="0.55"/>
<rect x="263.5" y="343.5" width="13" height="13" rx="4.5" fill="#E9E7EF" opacity="0.55"/>
<rect x="263.5" y="363.5" width="13" height="13" rx="4.5" fill="#E9E7EF" opacity="0.55"/>
<rect x="263.5" y="383.5" width="13" height="13" rx="4.5" fill="#E9E7EF" opacity="0.55"/>
<rect x="263.5" y="403.5" width="13" height="13" rx="4.5" fill="#E9E7EF" opacity="0.55"/>
<rect x="263.5" y="423.5" width="13" height="13" rx="4.5" fill="#E9E7EF" opacity="0.55"/>
<rect x="263.5" y="443.5" width="13" height="13" rx="4.5" fill="#E9E7EF" opacity="0.55"/>
<rect x="263.5" y="463.5" width="13" height="13" rx="4.5" fill="#E9E7EF" opacity="0.55"/>
<rect x="263.5" y="483.5" width="13" height="13" rx="4.5" fill="#CFC7E2" opacity="0.90"/>
<rect x="283.5" y="23.5" width="13" height="13" rx="4.5" fill="#CFC7E2" opacity="0.90"/>
<rect x="283.5" y="43.5" width="13" height="13" rx="4.5" fill="#E9E7EF" opacity="0.55"/>
<rect x="283.5" y="63.5" width="13" height="13" rx="4.5" fill="#E9E7EF" opacity="0.55"/>
<rect x="283.5" y="83.5" width="13" height="13" rx="4.5" fill="#E9E7EF" opacity="0.55"/>
<rect x="283.5" y="103.5" width="13" height="13" rx="4.5" fill="#E9E7EF" opacity="0.55"/>
<rect x="283.5" y="123.5" width="13" height="13" rx="4.5" fill="#E9E7EF" opacity="0.55"/>
<rect x="283.5" y="143.5" width="13" height="13" rx="4.5" fill="#E9E7EF" opacity="0.55"/>
<rect x="283.5" y="163.5" width="13" height="13" rx="4.5" fill="#E9E7EF" opacity="0.55"/>
<rect x="283.5" y="183.5" width="13" height="13" rx="4.5" fill="#E9E7EF" opacity="0.55"/>
<rect x="283.5" y="203.5" width="13" height="13" rx="4.5" fill="#E9E7EF" opacity="0.55"/>
<rect x="283.5" y="223.5" width="13" height="13" rx="4.5" fill="#E9E7EF" opacity="0.55"/>
<rect x="283.5" y="243.5" width="13" height="13" rx="4.5" fill="#E9E7EF" opacity="0.55"/>
<rect x="283.5" y="263.5" width="13" height="13" rx="4.5" fill="#E9E7EF" opacity="0.55"/>
<rect x="283.5" y="283.5" width="13" height="13" rx="4.5" fill="#E9E7EF" opacity="0.55"/>
<rect x="283.5" y="303.5" width="13" height="13" rx="4.5" fill="#E9E7EF" opacity="0.55"/>
<rect x="283.5" y="323.5" width="13" height="13" rx="4.5" fill="#E9E7EF" opacity="0.55"/>
<rect x="283.5" y="343.5" width="13" height="13" rx="4.5" fill="#E9E7EF" opacity="0.55"/>
<rect x="283.5" y="363.5" width="13" height="13" rx="4.5" fill="#E9E7EF" opacity="0.55"/>
<rect x="283.5" y="383.5" width="13" height="13" rx="4.5" fill="#E9E7EF" opacity="0.55"/>
<rect x="283.5" y="403.5" width="13" height="13" rx="4.5" fill="#E9E7EF" opacity="0.55"/>
<rect x="283.5" y="423.5" width="13" height="13" rx="4.5" fill="#E9E7EF" opacity="0.55"/>
<rect x="283.5" y="443.5" width="13" height="13" rx="4.5" fill="#E9E7EF" opacity="0.55"/>
<rect x="283.5" y="463.5" width="13" height="13" rx="4.5" fill="#E9E7EF" opacity="0.55"/>
<rect x="283.5" y="483.5" width="13" height="13" rx="4.5" fill="#CFC7E2" opacity="0.90"/>
<rect x="303.5" y="23.5" width="13" height="13" rx="4.5" fill="#CFC7E2" opacity="0.90"/>
<rect x="303.5" y="43.5" width="13" height="13" rx="4.5" fill="#E9E7EF" opacity="0.55"/>
<rect x="303.5" y="63.5" width="13" height="13" rx="4.5" fill="#E9E7EF" opacity="0.55"/>
<rect x="303.5" y="83.5" width="13" height="13" rx="4.5" fill="#E9E7EF" opacity="0.55"/>
<rect x="303.5" y="103.5" width="13" height="13" rx="4.5" fill="#E9E7EF" opacity="0.55"/>
<rect x="303.5" y="123.5" width="13" height="13" rx="4.5" fill="#E9E7EF" opacity="0.55"/>
<rect x="303.5" y="143.5" width="13" height="13" rx="4.5" fill="#E9E7EF" opacity="0.55"/>
<rect x="303.5" y="163.5" width="13" height="13" rx="4.5" fill="#E9E7EF" opacity="0.55"/>
<rect x="303.5" y="183.5" width="13" height="13" rx="4.5" fill="#E9E7EF" opacity="0.55"/>
<rect x="303.5" y="203.5" width="13" height="13" rx="4.5" fill="#E9E7EF" opacity="0.55"/>
<rect x="303.5" y="223.5" width="13" height="13" rx="4.5" fill="#E9E7EF" opacity="0.55"/>
<rect x="303.5" y="243.5" width="13" height="13" rx="4.5" fill="#E9E7EF" opacity="0.55"/>
<rect x="303.5" y="263.5" width="13" height="13" rx="4.5" fill="#E9E7EF" opacity="0.55"/>
<rect x="303.5" y="283.5" width="13" height="13" rx="4.5" fill="#E9E7EF" opacity="0.55"/>
<rect x="303.5" y="303.5" width="13" height="13" rx="4.5" fill="#E9E7EF" opacity="0.55"/>
<rect x="303.5" y="323.5" width="13" height="13" rx="4.5" fill="#E9E7EF" opacity="0.55"/>
<rect x="303.5" y="343.5" width="13" height="13" rx="4.5" fill="#E9E7EF" opacity="0.55"/>
<rect x="303.5" y="363.5" width="13" height="13" rx="4.5" fill="#E9E7EF" opacity="0.55"/>
<rect x="303.5" y="383.5" width="13" height="13" rx="4.5" fill="#E9E7EF" opacity="0.55"/>
<rect x="303.5" y="403.5" width="13" height="13" rx="4.5" fill="#E9E7EF" opacity="0.55"/>
<rect x="303.5" y="423.5" width="13" height="13" rx="4.5" fill="#E9E7EF" opacity="0.55"/>
<rect x="303.5" y="443.5" width="13" height="13" rx="4.5" fill="#E9E7EF" opacity="0.55"/>
<rect x="303.5" y="463.5" width="13" height="13" rx="4.5" fill="#E9E7EF" opacity="0.55"/>
<rect x="303.5" y="483.5" width="13" height="13" rx="4.5" fill="#CFC7E2" opacity="0.90"/>
<rect x="323.5" y="23.5" width="13" height="13" rx="4.5" fill="#CFC7E2" opacity="0.90"/>
<rect x="323.5" y="43.5" width="13" height="13" rx="4.5" fill="#E9E7EF" opacity="0.55"/>
<rect x="323.5" y="63.5" width="13" height="13" rx="4.5" fill="#E9E7EF" opacity="0.55"/>
<rect x="323.5" y="83.5" width="13" height="13" rx="4.5" fill="#E9E7EF" opacity="0.55"/>
<rect x="323.5" y="103.5" width="13" height="13" rx="4.5" fill="#E9E7EF" opacity="0.55"/>
<rect x="323.5" y="123.5" width="13" height="13" rx="4.5" fill="#E9E7EF" opacity="0.55"/>
<rect x="323.5" y="143.5" width="13" height="13" rx="4.5" fill="#E9E7EF" opacity="0.55"/>
<rect x="323.5" y="163.5" width="13" height="13" rx="4.5" fill="#E9E7EF" opacity="0.55"/>
<rect x="323.5" y="183.5" width="13" height="13" rx="4.5" fill="#E9E7EF" opacity="0.55"/>
<rect x="323.5" y="203.5" width="13" height="13" rx="4.5" fill="#E9E7EF" opacity="0.55"/>
<rect x="323.5" y="223.5" width="13" height="13" rx="4.5" fill="#E9E7EF" opacity="0.55"/>
<rect x="323.5" y="243.5" width="13" height="13" rx="4.5" fill="#E9E7EF" opacity="0.55"/>
<rect x="323.5" y="263.5" width="13" height="13" rx="4.5" fill="#E9E7EF" opacity="0.55"/>
<rect x="323.5" y="283.5" width="13" height="13" rx="4.5" fill="#E9E7EF" opacity="0.55"/>
<rect x="323.5" y="303.5" width="13" height="13" rx="4.5" fill="#E9E7EF" opacity="0.55"/>
<rect x="323.5" y="323.5" width="13" height="13" rx="4.5" fill="#E9E7EF" opacity="0.55"/>
<rect x="323.5" y="343.5" width="13" height="13" rx="4.5" fill="#E9E7EF" opacity="0.55"/>
<rect x="323.5" y="363.5" width="13" height="13" rx="4.5" fill="#E9E7EF" opacity="0.55"/>
<rect x="323.5" y="383.5" width="13" height="13" rx="4.5" fill="#E9E7EF" opacity="0.55"/>
<rect x="323.5" y="403.5" width="13" height="13" rx="4.5" fill="#E9E7EF" opacity="0.55"/>
<rect x="323.5" y="423.5" width="13" height="13" rx="4.5" fill="#E9E7EF" opacity="0.55"/>
<rect x="323.5" y="443.5" width="13" height="13" rx="4.5" fill="#E9E7EF" opacity="0.55"/>
<rect x="323.5" y="463.5" width="13" height="13" rx="4.5" fill="#E9E7EF" opacity="0.55"/>
<rect x="323.5" y="483.5" width="13" height="13" rx="4.5" fill="#CFC7E2" opacity="0.90"/>
<rect x="343.5" y="23.5" width="13" height="13" rx="4.5" fill="#CFC7E2" opacity="0.90"/>
<rect x="343.5" y="43.5" width="13" height="13" rx="4.5" fill="#CFC7E2" opacity="0.90"/>
<rect x="343.5" y="63.5" width="13" height="13" rx="4.5" fill="#E9E7EF" opacity="0.55"/>
<rect x="343.5" y="83.5" width="13" height="13" rx="4.5" fill="#E9E7EF" opacity="0.55"/>
<rect x="343.5" y="103.5" width="13" height="13" rx="4.5" fill="#E9E7EF" opacity="0.55"/>
<rect x="343.5" y="123.5" width="13" height="13" rx="4.5" fill="#E9E7EF" opacity="0.55"/>
<rect x="343.5" y="143.5" width="13" height="13" rx="4.5" fill="#E9E7EF" opacity="0.55"/>
<rect x="343.5" y="163.5" width="13" height="13" rx="4.5" fill="#E9E7EF" opacity="0.55"/>
<rect x="343.5" y="183.5" width="13" height="13" rx="4.5" fill="#E9E7EF" opacity="0.55"/>
<rect x="343.5" y="203.5" width="13" height="13" rx="4.5" fill="#E9E7EF" opacity="0.55"/>
<rect x="343.5" y="223.5" width="13" height="13" rx="4.5" fill="#E9E7EF" opacity="0.55"/>
<rect x="343.5" y="243.5" width="13" height="13" rx="4.5" fill="#E9E7EF" opacity="0.55"/>
<rect x="343.5" y="263.5" width="13" height="13" rx="4.5" fill="#E9E7EF" opacity="0.55"/>
<rect x="343.5" y="283.5" width="13" height="13" rx="4.5" fill="#E9E7EF" opacity="0.55"/>
<rect x="343.5" y="303.5" width="13" height="13" rx="4.5" fill="#E9E7EF" opacity="0.55"/>
<rect x="343.5" y="323.5" width="13" height="13" rx="4.5" fill="#E9E7EF" opacity="0.55"/>
<rect x="343.5" y="343.5" width="13" height="13" rx="4.5" fill="#E9E7EF" opacity="0.55"/>
<rect x="343.5" y="363.5" width="13" height="13" rx="4.5" fill="#E9E7EF" opacity="0.55"/>
<rect x="343.5" y="383.5" width="13" height="13" rx="4.5" fill="#E9E7EF" opacity="0.55"/>
<rect x="343.5" y="403.5" width="13" height="13" rx="4.5" fill="#E9E7EF" opacity="0.55"/>
<rect x="343.5" y="423.5" width="13" height="13" rx="4.5" fill="#E9E7EF" opacity="0.55"/>
<rect x="343.5" y="443.5" width="13" height="13" rx="4.5" fill="#E9E7EF" opacity="0.55"/>
<rect x="343.5" y="463.5" width="13" height="13" rx="4.5" fill="#CFC7E2" opacity="0.90"/>
<rect x="343.5" y="483.5" width="13" height="13" rx="4.5" fill="#CFC7E2" opacity="0.90"/>
<rect x="363.5" y="43.5" width="13" height="13" rx="4.5" fill="#CFC7E2" opacity="0.90"/>
<rect x="363.5" y="63.5" width="13" height="13" rx="4.5" fill="#E9E7EF" opacity="0.55"/>
<rect x="363.5" y="83.5" width="13" height="13" rx="4.5" fill="#E9E7EF" opacity="0.55"/>
<rect x="363.5" y="103.5" width="13" height="13" rx="4.5" fill="#E9E7EF" opacity="0.55"/>
<rect x="363.5" y="123.5" width="13" height="13" rx="4.5" fill="#E9E7EF" opacity="0.55"/>
<rect x="363.5" y="143.5" width="13" height="13" rx="4.5" fill="#E9E7EF" opacity="0.55"/>
<rect x="363.5" y="163.5" width="13" height="13" rx="4.5" fill="#E9E7EF" opacity="0.55"/>
<rect x="363.5" y="183.5" width="13" height="13" rx="4.5" fill="#E9E7EF" opacity="0.55"/>
<rect x="363.5" y="203.5" width="13" height="13" rx="4.5" fill="#E9E7EF" opacity="0.55"/>
<rect x="363.5" y="223.5" width="13" height="13" rx="4.5" fill="#E9E7EF" opacity="0.55"/>
<rect x="363.5" y="243.5" width="13" height="13" rx="4.5" fill="#E9E7EF" opacity="0.55"/>
<rect x="363.5" y="263.5" width="13" height="13" rx="4.5" fill="#E9E7EF" opacity="0.55"/>
<rect x="363.5" y="283.5" width="13" height="13" rx="4.5" fill="#E9E7EF" opacity="0.55"/>
<rect x="363.5" y="303.5" width="13" height="13" rx="4.5" fill="#E9E7EF" opacity="0.55"/>
<rect x="363.5" y="323.5" width="13" height="13" rx="4.5" fill="#E9E7EF" opacity="0.55"/>
<rect x="363.5" y="343.5" width="13" height="13" rx="4.5" fill="#E9E7EF" opacity="0.55"/>
<rect x="363.5" y="363.5" width="13" height="13" rx="4.5" fill="#E9E7EF" opacity="0.55"/>
<rect x="363.5" y="383.5" width="13" height="13" rx="4.5" fill="#E9E7EF" opacity="0.55"/>
<rect x="363.5" y="403.5" width="13" height="13" rx="4.5" fill="#E9E7EF" opacity="0.55"/>
<rect x="363.5" y="423.5" width="13" height="13" rx="4.5" fill="#E9E7EF" opacity="0.55"/>
<rect x="363.5" y="443.5" width="13" height="13" rx="4.5" fill="#E9E7EF" opacity="0.55"/>
<rect x="363.5" y="463.5" width="13" height="13" rx="4.5" fill="#CFC7E2" opacity="0.90"/>
<rect x="383.5" y="43.5" width="13" height="13" rx="4.5" fill="#CFC7E2" opacity="0.90"/>
<rect x="383.5" y="63.5" width="13" height="13" rx="4.5" fill="#CFC7E2" opacity="0.90"/>
<rect x="383.5" y="83.5" width="13" height="13" rx="4.5" fill="#E9E7EF" opacity="0.55"/>
<rect x="383.5" y="103.5" width="13" height="13" rx="4.5" fill="#E9E7EF" opacity="0.55"/>
<rect x="383.5" y="123.5" width="13" height="13" rx="4.5" fill="#E9E7EF" opacity="0.55"/>
<rect x="383.5" y="143.5" width="13" height="13" rx="4.5" fill="#E9E7EF" opacity="0.55"/>
<rect x="383.5" y="163.5" width="13" height="13" rx="4.5" fill="#E9E7EF" opacity="0.55"/>
<rect x="383.5" y="183.5" width="13" height="13" rx="4.5" fill="#E9E7EF" opacity="0.55"/>
<rect x="383.5" y="203.5" width="13" height="13" rx="4.5" fill="#E9E7EF" opacity="0.55"/>
<rect x="383.5" y="223.5" width="13" height="13" rx="4.5" fill="#E9E7EF" opacity="0.55"/>
<rect x="383.5" y="243.5" width="13" height="13" rx="4.5" fill="#E9E7EF" opacity="0.55"/>
<rect x="383.5" y="263.5" width="13" height="13" rx="4.5" fill="#E9E7EF" opacity="0.55"/>
<rect x="383.5" y="283.5" width="13" height="13" rx="4.5" fill="#E9E7EF" opacity="0.55"/>
<rect x="383.5" y="303.5" width="13" height="13" rx="4.5" fill="#E9E7EF" opacity="0.55"/>
<rect x="383.5" y="323.5" width="13" height="13" rx="4.5" fill="#E9E7EF" opacity="0.55"/>
<rect x="383.5" y="343.5" width="13" height="13" rx="4.5" fill="#E9E7EF" opacity="0.55"/>
<rect x="383.5" y="363.5" width="13" height="13" rx="4.5" fill="#E9E7EF" opacity="0.55"/>
<rect x="383.5" y="383.5" width="13" height="13" rx="4.5" fill="#E9E7EF" opacity="0.55"/>
<rect x="383.5" y="403.5" width="13" height="13" rx="4.5" fill="#E9E7EF" opacity="0.55"/>
<rect x="383.5" y="423.5" width="13" height="13" rx="4.5" fill="#E9E7EF" opacity="0.55"/>
<rect x="383.5" y="443.5" width="13" height="13" rx="4.5" fill="#CFC7E2" opacity="0.90"/>
<rect x="383.5" y="463.5" width="13" height="13" rx="4.5" fill="#CFC7E2" opacity="0.90"/>
<rect x="403.5" y="63.5" width="13" height="13" rx="4.5" fill="#CFC7E2" opacity="0.90"/>
<rect x="403.5" y="83.5" width="13" height="13" rx="4.5" fill="#CFC7E2" opacity="0.90"/>
<rect x="403.5" y="103.5" width="13" height="13" rx="4.5" fill="#E9E7EF" opacity="0.55"/>
<rect x="403.5" y="123.5" width="13" height="13" rx="4.5" fill="#E9E7EF" opacity="0.55"/>
<rect x="403.5" y="143.5" width="13" height="13" rx="4.5" fill="#E9E7EF" opacity="0.55"/>
<rect x="403.5" y="163.5" width="13" height="13" rx="4.5" fill="#E9E7EF" opacity="0.55"/>
<rect x="403.5" y="183.5" width="13" height="13" rx="4.5" fill="#E9E7EF" opacity="0.55"/>
<rect x="403.5" y="203.5" width="13" height="13" rx="4.5" fill="#E9E7EF" opacity="0.55"/>
<rect x="403.5" y="223.5" width="13" height="13" rx="4.5" fill="#E9E7EF" opacity="0.55"/>
<rect x="403.5" y="243.5" width="13" height="13" rx="4.5" fill="#E9E7EF" opacity="0.55"/>
<rect x="403.5" y="263.5" width="13" height="13" rx="4.5" fill="#E9E7EF" opacity="0.55"/>
<rect x="403.5" y="283.5" width="13" height="13" rx="4.5" fill="#E9E7EF" opacity="0.55"/>
<rect x="403.5" y="303.5" width="13" height="13" rx="4.5" fill="#E9E7EF" opacity="0.55"/>
<rect x="403.5" y="323.5" width="13" height="13" rx="4.5" fill="#E9E7EF" opacity="0.55"/>
<rect x="403.5" y="343.5" width="13" height="13" rx="4.5" fill="#E9E7EF" opacity="0.55"/>
<rect x="403.5" y="363.5" width="13" height="13" rx="4.5" fill="#E9E7EF" opacity="0.55"/>
<rect x="403.5" y="383.5" width="13" height="13" rx="4.5" fill="#E9E7EF" opacity="0.55"/>
<rect x="403.5" y="403.5" width="13" height="13" rx="4.5" fill="#E9E7EF" opacity="0.55"/>
<rect x="403.5" y="423.5" width="13" height="13" rx="4.5" fill="#CFC7E2" opacity="0.90"/>
<rect x="403.5" y="443.5" width="13" height="13" rx="4.5" fill="#CFC7E2" opacity="0.90"/>
<rect x="423.5" y="83.5" width="13" height="13" rx="4.5" fill="#CFC7E2" opacity="0.90"/>
<rect x="423.5" y="103.5" width="13" height="13" rx="4.5" fill="#CFC7E2" opacity="0.90"/>
<rect x="423.5" y="123.5" width="13" height="13" rx="4.5" fill="#E9E7EF" opacity="0.55"/>
<rect x="423.5" y="143.5" width="13" height="13" rx="4.5" fill="#E9E7EF" opacity="0.55"/>
<rect x="423.5" y="163.5" width="13" height="13" rx="4.5" fill="#E9E7EF" opacity="0.55"/>
<rect x="423.5" y="183.5" width="13" height="13" rx="4.5" fill="#E9E7EF" opacity="0.55"/>
<rect x="423.5" y="203.5" width="13" height="13" rx="4.5" fill="#E9E7EF" opacity="0.55"/>
<rect x="423.5" y="223.5" width="13" height="13" rx="4.5" fill="#E9E7EF" opacity="0.55"/>
<rect x="423.5" y="243.5" width="13" height="13" rx="4.5" fill="#E9E7EF" opacity="0.55"/>
<rect x="423.5" y="263.5" width="13" height="13" rx="4.5" fill="#E9E7EF" opacity="0.55"/>
<rect x="423.5" y="283.5" width="13" height="13" rx="4.5" fill="#E9E7EF" opacity="0.55"/>
<rect x="423.5" y="303.5" width="13" height="13" rx="4.5" fill="#E9E7EF" opacity="0.55"/>
<rect x="423.5" y="323.5" width="13" height="13" rx="4.5" fill="#E9E7EF" opacity="0.55"/>
<rect x="423.5" y="343.5" width="13" height="13" rx="4.5" fill="#E9E7EF" opacity="0.55"/>
<rect x="423.5" y="363.5" width="13" height="13" rx="4.5" fill="#E9E7EF" opacity="0.55"/>
<rect x="423.5" y="383.5" width="13" height="13" rx="4.5" fill="#E9E7EF" opacity="0.55"/>
<rect x="423.5" y="403.5" width="13" height="13" rx="4.5" fill="#CFC7E2" opacity="0.90"/>
<rect x="423.5" y="423.5" width="13" height="13" rx="4.5" fill="#CFC7E2" opacity="0.90"/>
<rect x="443.5" y="103.5" width="13" height="13" rx="4.5" fill="#CFC7E2" opacity="0.90"/>
<rect x="443.5" y="123.5" width="13" height="13" rx="4.5" fill="#CFC7E2" opacity="0.90"/>
<rect x="443.5" y="143.5" width="13" height="13" rx="4.5" fill="#E9E7EF" opacity="0.55"/>
<rect x="443.5" y="163.5" width="13" height="13" rx="4.5" fill="#E9E7EF" opacity="0.55"/>
<rect x="443.5" y="183.5" width="13" height="13" rx="4.5" fill="#E9E7EF" opacity="0.55"/>
<rect x="443.5" y="203.5" width="13" height="13" rx="4.5" fill="#E9E7EF" opacity="0.55"/>
<rect x="443.5" y="223.5" width="13" height="13" rx="4.5" fill="#E9E7EF" opacity="0.55"/>
<rect x="443.5" y="243.5" width="13" height="13" rx="4.5" fill="#E9E7EF" opacity="0.55"/>
<rect x="443.5" y="263.5" width="13" height="13" rx="4.5" fill="#E9E7EF" opacity="0.55"/>
<rect x="443.5" y="283.5" width="13" height="13" rx="4.5" fill="#E9E7EF" opacity="0.55"/>
<rect x="443.5" y="303.5" width="13" height="13" rx="4.5" fill="#E9E7EF" opacity="0.55"/>
<rect x="443.5" y="323.5" width="13" height="13" rx="4.5" fill="#E9E7EF" opacity="0.55"/>
<rect x="443.5" y="343.5" width="13" height="13" rx="4.5" fill="#E9E7EF" opacity="0.55"/>
<rect x="443.5" y="363.5" width="13" height="13" rx="4.5" fill="#E9E7EF" opacity="0.55"/>
<rect x="443.5" y="383.5" width="13" height="13" rx="4.5" fill="#CFC7E2" opacity="0.90"/>
<rect x="443.5" y="403.5" width="13" height="13" rx="4.5" fill="#CFC7E2" opacity="0.90"/>
<rect x="463.5" y="123.5" width="13" height="13" rx="4.5" fill="#CFC7E2" opacity="0.90"/>
<rect x="463.5" y="143.5" width="13" height="13" rx="4.5" fill="#CFC7E2" opacity="0.90"/>
<rect x="463.5" y="163.5" width="13" height="13" rx="4.5" fill="#CFC7E2" opacity="0.90"/>
<rect x="463.5" y="183.5" width="13" height="13" rx="4.5" fill="#E9E7EF" opacity="0.55"/>
<rect x="463.5" y="203.5" width="13" height="13" rx="4.5" fill="#E9E7EF" opacity="0.55"/>
<rect x="463.5" y="223.5" width="13" height="13" rx="4.5" fill="#E9E7EF" opacity="0.55"/>
<rect x="463.5" y="243.5" width="13" height="13" rx="4.5" fill="#E9E7EF" opacity="0.55"/>
<rect x="463.5" y="263.5" width="13" height="13" rx="4.5" fill="#E9E7EF" opacity="0.55"/>
<rect x="463.5" y="283.5" width="13" height="13" rx="4.5" fill="#E9E7EF" opacity="0.55"/>
<rect x="463.5" y="303.5" width="13" height="13" rx="4.5" fill="#E9E7EF" opacity="0.55"/>
<rect x="463.5" y="323.5" width="13" height="13" rx="4.5" fill="#E9E7EF" opacity="0.55"/>
<rect x="463.5" y="343.5" width="13" height="13" rx="4.5" fill="#CFC7E2" opacity="0.90"/>
<rect x="463.5" y="363.5" width="13" height="13" rx="4.5" fill="#CFC7E2" opacity="0.90"/>
<rect x="463.5" y="383.5" width="13" height="13" rx="4.5" fill="#CFC7E2" opacity="0.90"/>
<rect x="483.5" y="163.5" width="13" height="13" rx="4.5" fill="#CFC7E2" opacity="0.90"/>
<rect x="483.5" y="183.5" width="13" height="13" rx="4.5" fill="#CFC7E2" opacity="0.90"/>
<rect x="483.5" y="203.5" width="13" height="13" rx="4.5" fill="#CFC7E2" opacity="0.90"/>
<rect x="483.5" y="223.5" width="13" height="13" rx="4.5" fill="#CFC7E2" opacity="0.90"/>
<rect x="483.5" y="243.5" width="13" height="13" rx="4.5" fill="#CFC7E2" opacity="0.90"/>
<rect x="483.5" y="263.5" width="13" height="13" rx="4.5" fill="#CFC7E2" opacity="0.90"/>
<rect x="483.5" y="283.5" width="13" height="13" rx="4.5" fill="#CFC7E2" opacity="0.90"/>
<rect x="483.5" y="303.5" width="13" height="13" rx="4.5" fill="#CFC7E2" opacity="0.90"/>
<rect x="483.5" y="323.5" width="13" height="13" rx="4.5" fill="#CFC7E2" opacity="0.90"/>
<rect x="483.5" y="343.5" width="13" height="13" rx="4.5" fill="#CFC7E2" opacity="0.90"/>
</svg>
